<svg viewBox="0 0 24 24" xmlns="http://www.w3.org/2000/svg">
  <!-- 中心花瓣 -->
  <path d="M12 3 Q14 7 14 11 Q14 14 12 15 Q10 14 10 11 Q10 7 12 3z" stroke="#7a4a27" stroke-width="1.2" stroke-linecap="round" stroke-linejoin="round" fill="#7a4a27"/>
  <!-- 左花瓣 -->
  <path d="M8 5 Q6 8 6 11 Q6 14 9 15 Q10 13 10 11 Q9 8 8 5z" stroke="#7a4a27" stroke-width="1.2" stroke-linecap="round" stroke-linejoin="round" fill="#7a4a27"/>
  <!-- 右花瓣 -->
  <path d="M16 5 Q18 8 18 11 Q18 14 15 15 Q14 13 14 11 Q15 8 16 5z" stroke="#7a4a27" stroke-width="1.2" stroke-linecap="round" stroke-linejoin="round" fill="#7a4a27"/>
  <!-- 左外花瓣 -->
  <path d="M5 8 Q3 11 4 14 Q5 16 8 16 Q7 14 7 12 Q6 10 5 8z" stroke="#7a4a27" stroke-width="1.2" stroke-linecap="round" stroke-linejoin="round" fill="#7a4a27"/>
  <!-- 右外花瓣 -->
  <path d="M19 8 Q21 11 20 14 Q19 16 16 16 Q17 14 17 12 Q18 10 19 8z" stroke="#7a4a27" stroke-width="1.2" stroke-linecap="round" stroke-linejoin="round" fill="#7a4a27"/>
  <!-- 底部叶托 -->
  <path d="M6 18 Q9 16 12 16 Q15 16 18 18" stroke="#7a4a27" stroke-width="1.5" stroke-linecap="round" fill="none"/>
  <path d="M4 20 Q8 17.5 12 17.5 Q16 17.5 20 20" stroke="#7a4a27" stroke-width="1.5" stroke-linecap="round" fill="none"/>
</svg>

