<?xml version="1.0" encoding="UTF-8"?>
<svg version="1.1" xmlns="http://www.w3.org/2000/svg" width="500" height="500">
<path d="M0 0 C165 0 330 0 500 0 C500 165 500 330 500 500 C335 500 170 500 0 500 C0 335 0 170 0 0 Z " fill="#FEFEFE" transform="translate(0,0)"/>
<path d="M0 0 C9.98009603 7.22003284 15.33150276 16.68200827 19.1875 28.25 C20.07224289 44.99205775 18.12388567 58.29287319 7 71.4375 C1.83273749 76.98496242 -4.24553341 81.70890154 -11.8125 83.25 C-11.54519102 87.66059825 -9.74968387 90.37832318 -6.859375 93.55078125 C-1.13655235 98.30159776 6.543084 100.09374042 13.5625 102.125 C28.4611828 106.59103201 40.55398534 113.76162755 48.68359375 127.3046875 C55.50908965 140.67202233 57.4403202 155.89362984 53.625 170.4375 C45.50569333 195.27468464 26.15388403 210.29610193 3.875 222.1875 C2.87823242 222.72632813 1.88146484 223.26515625 0.85449219 223.8203125 C-0.08362305 224.30113281 -1.02173828 224.78195312 -1.98828125 225.27734375 C-2.82270752 225.70781006 -3.65713379 226.13827637 -4.5168457 226.58178711 C-6.8125 227.25 -6.8125 227.25 -8.94384766 226.50732422 C-11.0982685 225.05772044 -13.10515831 223.45193479 -15.1262207 221.82348633 C-23.72267762 215.01040718 -33.09821019 210.46947455 -43.09204102 206.01831055 C-61.37319526 197.70604227 -77.40702686 181.8315283 -84.80859375 162.9375 C-87.00081702 154.88513124 -87.64390457 145.81955296 -83.75 138.1875 C-82.35546875 136.140625 -82.35546875 136.140625 -80.8125 134.25 C-80.29300781 133.60546875 -79.77351563 132.9609375 -79.23828125 132.296875 C-74.49225709 127.03089015 -69.13023416 123.78515578 -62.0390625 122.90625 C-56.25443212 122.71607037 -51.94629476 123.3978918 -46.8125 126.25 C-46.10480469 126.64058594 -45.39710938 127.03117188 -44.66796875 127.43359375 C-36.58727514 132.29302279 -30.4737117 139.55462221 -26.8125 148.25 C-25.22651145 146.17821316 -23.70965516 144.09456108 -22.26953125 141.91796875 C-15.83412868 132.21136393 -9.3729261 126.02255661 2.1875 123.25 C10.61230211 121.73853004 17.16490187 124.66298504 24.1875 129.25 C29.87186671 134.02486804 33.57300078 140.72277106 34.5703125 148.0703125 C35.28084466 166.21256695 24.33309742 179.88451296 12.72949219 192.61035156 C6.47931894 199.25635592 -0.35099932 204.91876472 -8.01171875 209.875 C-8.60597656 210.32875 -9.20023438 210.7825 -9.8125 211.25 C-9.8125 211.91 -9.8125 212.57 -9.8125 213.25 C-2.77214784 213.00955081 1.74976226 209.73613202 7.4375 205.8125 C8.36900879 205.17795898 9.30051758 204.54341797 10.26025391 203.88964844 C23.91536438 194.44583798 34.85876025 184.39688476 40.1875 168.25 C40.52587891 167.28513672 40.52587891 167.28513672 40.87109375 166.30078125 C44.02784491 155.91615848 42.79428657 144.95669396 38.1875 135.25 C32.03758089 124.64381896 23.84503867 118.12494823 12.0847168 114.62402344 C9.83109477 114.0253231 7.57247132 113.44922571 5.3125 112.875 C-5.70879547 109.91798542 -15.39133671 105.90588783 -21.35546875 95.578125 C-22.57509248 93.15937541 -23.7287291 90.73218497 -24.8125 88.25 C-26.75441171 91.16286756 -28.58048111 94.12635602 -30.3984375 97.1171875 C-37.64476591 108.04673256 -48.55865515 110.59701998 -60.57250977 113.99536133 C-66.96954319 115.85849807 -72.46087186 118.20183772 -77.8125 122.25 C-78.64652344 122.86359375 -79.48054688 123.4771875 -80.33984375 124.109375 C-88.13198055 130.85517432 -92.2349985 140.70979557 -93.125 150.7890625 C-93.62719037 166.20002956 -88.29577843 178.38426813 -78 189.75 C-67.23383138 199.93714779 -52.92634535 206.32787682 -39.8840332 213.0390625 C-30.67452395 217.79155284 -22.07736323 222.48480277 -14.76171875 229.96484375 C-11.94034508 231.825028 -10.1482769 231.61839284 -6.8125 231.25 C-4.32081101 230.46138463 -2.01893615 229.63684115 0.375 228.625 C1.02919922 228.35502197 1.68339844 228.08504395 2.35742188 227.80688477 C9.68545016 224.71861869 16.72008076 221.20667131 23.0625 216.375 C26.22109585 214.22715482 27.47823016 213.68798942 31.1875 214.25 C31.8475 215.57 32.5075 216.89 33.1875 218.25 C35.02248047 217.816875 35.02248047 217.816875 36.89453125 217.375 C53.86212253 213.55801359 71.11221527 210.64704295 86.5625 220.375 C91.32175901 225.58752177 94.43034691 231.22138422 94.75 238.375 C94.34101302 245.24167616 91.79593048 250.076849 86.6875 254.625 C79.21161999 260.70764783 71.13885183 260.41778553 61.8828125 260.56640625 C60.80369598 260.58718735 59.72457947 260.60796844 58.61276245 260.62937927 C55.17940389 260.69455113 51.74597147 260.7536089 48.3125 260.8125 C45.97915915 260.85571601 43.64582566 260.89933127 41.3125 260.94335938 C35.60424382 261.05019922 29.89591484 261.15202467 24.1875 261.25 C54.43262575 271.50237497 54.43262575 271.50237497 85.4375 268.625 C87.40843957 267.53596869 87.40843957 267.53596869 89.1875 266.25 C89.82816406 265.8375 90.46882812 265.425 91.12890625 265 C96.34849991 261.16430696 98.78753134 256.51466422 100.1875 250.25 C100.56316674 246.55403758 100.73482059 242.85370036 100.77294922 239.1394043 C100.83822588 235.93754724 100.9927248 233.61115752 102.52734375 230.765625 C104.1875 229.25 104.1875 229.25 107.1875 228.875 C110.1875 229.25 110.1875 229.25 113.1875 231.25 C115.54677846 242.19732638 113.93034144 255.67414579 108.1875 265.25 C102.57874216 272.98070235 95.49059234 279.4590723 86.1875 282.25 C66.94309279 285.04023388 48.97887427 282.1165426 30.41503906 276.86523438 C24.79221094 275.31223932 19.13136948 273.89572252 13.48168945 272.4440918 C8.08142372 271.04447412 2.74146957 269.53893455 -2.57275391 267.83959961 C-7.90448135 266.43605462 -12.72090895 266.70996775 -17.86083984 268.63867188 C-23.30638073 270.51766583 -28.80403803 271.46890758 -34.4765625 272.40625 C-35.58566986 272.59465454 -36.69477722 272.78305908 -37.8374939 272.97717285 C-40.18177599 273.37378533 -42.52665058 273.76690979 -44.87207031 274.15673828 C-48.37977159 274.74039441 -51.88527066 275.33602277 -55.390625 275.93359375 C-99.41289386 283.37494077 -99.41289386 283.37494077 -118.375 283.5 C-119.55352539 283.5309375 -119.55352539 283.5309375 -120.75585938 283.5625 C-131.28710316 283.63184152 -141.00703841 279.49182454 -148.82421875 272.43359375 C-157.18451624 263.45670165 -159.99711658 254.18578625 -160.125 242.25 C-160.15400391 241.34765625 -160.18300781 240.4453125 -160.21289062 239.515625 C-160.27632524 232.91842481 -160.27632524 232.91842481 -157.98828125 229.62109375 C-155.8125 228.25 -155.8125 228.25 -152.6875 228.3125 C-149.8125 229.25 -149.8125 229.25 -147.8125 232.25 C-147.61050286 235.1414447 -147.49450402 237.98124201 -147.4375 240.875 C-147.17966792 247.73442169 -146.6188303 253.34881885 -142.8125 259.25 C-142.255625 260.1575 -141.69875 261.065 -141.125 262 C-132.52748357 270.36515112 -122.95388838 270.59522685 -111.609375 270.4765625 C-99.10404193 270.13892705 -86.68302065 267.99595289 -74.4050293 265.71875 C-71.41516054 265.17815785 -68.41900004 264.71221635 -65.41430664 264.26293945 C-46.01397515 261.34577737 -27.02330996 257.65855599 -8.23852539 251.92895508 C-7.13758545 251.59661865 -6.03664551 251.26428223 -4.90234375 250.921875 C-3.94191162 250.6237793 -2.98147949 250.32568359 -1.99194336 250.01855469 C6.61164944 247.93884109 15.35702643 248.07652809 24.1640625 248.00390625 C25.50207284 247.98836567 26.84007553 247.97215345 28.17807007 247.95530701 C33.81589012 247.88518401 39.45377317 247.82438519 45.09179688 247.77319336 C48.55822729 247.74126266 52.02444597 247.69997235 55.49070358 247.65299797 C57.43534941 247.62940623 59.38011338 247.616294 61.32485962 247.60340881 C71.37866165 247.78908256 71.37866165 247.78908256 80.125 243.5625 C81.65548375 240.23144714 81.63268971 237.8751162 81.1875 234.25 C78.75956458 230.20344096 76.63805897 228.61661186 72.1875 227.25 C69.37001327 227.03064057 66.68983403 226.91646911 63.875 226.9375 C62.68185181 226.94595947 62.68185181 226.94595947 61.46459961 226.95458984 C48.37363435 227.21737182 36.45556951 230.60967589 24.10546875 234.66796875 C19.37725431 236.21299687 14.60737613 237.55472039 9.8125 238.875 C2.99605041 240.75748218 -3.72311395 242.86045626 -10.421875 245.12109375 C-28.73320818 251.28302137 -46.56449071 256.75940204 -65.8125 259.25 C-67.00202271 259.40819214 -67.00202271 259.40819214 -68.21557617 259.56958008 C-77.39560725 260.59262016 -86.66616943 260.50788287 -95.8918457 260.54516602 C-97.88247763 260.55673283 -99.87307744 260.57725795 -101.86352539 260.60668945 C-104.77511151 260.6495809 -107.68579266 260.66555627 -110.59765625 260.67578125 C-111.47398209 260.69328934 -112.35030792 260.71079742 -113.25318909 260.72883606 C-120.61018052 260.70335415 -127.43873344 258.96955862 -133.25 254.28515625 C-133.765625 253.63417969 -134.28125 252.98320312 -134.8125 252.3125 C-135.34875 251.66410156 -135.885 251.01570313 -136.4375 250.34765625 C-140.23597212 244.55282804 -140.5625527 239.00996866 -139.8125 232.25 C-137.80234023 225.22045924 -133.05952299 220.66836385 -126.82739258 217.11962891 C-120.97466146 214.3095093 -116.13229656 213.68324408 -109.6875 213.875 C-108.78040283 213.88789063 -107.87330566 213.90078125 -106.9387207 213.9140625 C-99.13053434 214.09019218 -91.50699575 214.92621579 -83.8125 216.25 C-83.1525 214.93 -82.4925 213.61 -81.8125 212.25 C-76.94932332 212.75358338 -74.07252339 214.12739138 -70.0625 216.875 C-64.22252462 220.69572093 -58.2436119 223.20481833 -51.70288086 225.58642578 C-45.58264861 227.84674251 -39.866085 230.61088018 -34.2019043 233.84960938 C-29.6832523 236.29283749 -26.77288675 236.49789604 -21.8125 235.25 C-21.4825 234.92 -21.1525 234.59 -20.8125 234.25 C-24.78084703 232.38634952 -28.75033256 230.52515158 -32.72103882 228.66653442 C-34.11345875 228.01472838 -35.50573217 227.36260924 -36.89785767 226.71017456 C-44.55155036 223.12526978 -52.20979801 219.59305609 -60 216.3125 C-78.08055847 208.47433357 -94.17851012 194.77860689 -102.0390625 176.37890625 C-107.28884006 162.4613305 -107.76518764 147.76486487 -102.48046875 133.8203125 C-96.17260747 120.3182394 -86.53184103 109.81412142 -72.40234375 104.4296875 C-66.92800774 102.6307218 -61.40151977 100.99576764 -55.84204102 99.47973633 C-49.87302218 97.79628694 -44.67598237 96.11022876 -41.1328125 90.671875 C-40.73835938 89.79015625 -40.34390625 88.9084375 -39.9375 88 C-39.52757812 87.10796875 -39.11765625 86.2159375 -38.6953125 85.296875 C-38.40398437 84.62140625 -38.11265625 83.9459375 -37.8125 83.25 C-38.92044922 83.064375 -38.92044922 83.064375 -40.05078125 82.875 C-50.36158423 80.54157924 -59.62643617 72.09556115 -65.25 63.4375 C-71.56235853 51.77841286 -73.09011532 36.67357575 -69.6875 23.8125 C-64.35203568 9.19580937 -55.07100395 1.27416478 -41.421875 -5.18359375 C-27.38139091 -11.27692072 -12.62912469 -7.71540382 0 0 Z " fill="#E6A646" transform="translate(271.8125,57.75)"/>
<path d="M0 0 C8.04301968 4.55582914 12.31629169 12.30713963 16.25 20.375 C17.08145081 22.06340624 17.91970336 23.74848475 18.765625 25.4296875 C19.12430664 26.16429199 19.48298828 26.89889648 19.85253906 27.65576172 C21.01624524 29.8094198 21.01624524 29.8094198 24 31.5 C26.91256656 31.35437167 28.43523072 31.1237287 30.421875 28.9296875 C32.11538186 26.32235764 33.42846378 23.67196929 34.75244141 20.86401367 C38.58582082 12.74036406 42.34063915 5.81332327 49.8125 0.5 C55.49793294 -1.28366524 60.74981455 -1.29173192 66.375 0.6875 C69.83736126 3.07817801 72.12028805 5.7405761 74 9.5 C75.31841615 20.73895733 70.97145442 28.93195554 64.30078125 37.67578125 C60.63613293 42.17415262 56.79070111 46.46119891 52.77246094 50.64257812 C51.45831297 52.01971831 50.15607738 53.40824716 48.86035156 54.80273438 C46.51125643 57.32675161 44.13375641 59.82122943 41.75 62.3125 C40.99348145 63.13242432 40.23696289 63.95234863 39.45751953 64.79711914 C33.97581007 70.43113175 33.97581007 70.43113175 29.40234375 70.75390625 C25.63283345 69.36468374 22.21624802 67.73649283 18.8125 65.625 C18.16394043 65.22861328 17.51538086 64.83222656 16.84716797 64.42382812 C10.15568296 60.19141054 4.60673655 55.05010285 -1 49.5 C-1.80050781 48.76007813 -2.60101563 48.02015625 -3.42578125 47.2578125 C-12.83808955 38.381957 -21.82810674 27.20995833 -22.4375 13.875 C-22.27508753 8.98232447 -21.46542539 6.14313951 -18 2.5 C-12.31216984 -1.99113322 -6.78531563 -2.928537 0 0 Z " fill="#FEFEFD" transform="translate(220,194.5)"/>
<path d="M0 0 C7.50873604 5.16589398 12.18018316 12.88039322 15.015625 21.38671875 C15.88208764 33.77287321 15.13418588 43.84026495 6.890625 53.76171875 C0.01939282 60.91735624 -8.06069586 64.48838912 -17.921875 64.82421875 C-27.38428319 64.90788588 -34.88822722 61.50481706 -41.921875 55.13671875 C-49.69109871 46.60766876 -51.39198807 37.29414928 -51.1953125 26.15234375 C-50.67653175 16.89114668 -46.92572575 9.90861736 -40.09765625 3.66015625 C-28.16754096 -5.85580997 -13.42023896 -7.10638638 0 0 Z " fill="#FEFCF7" transform="translate(263.984375,66.61328125)"/>
<path d="M0 0 C5.50708972 1.92457517 10.64196553 4.37682855 15.77734375 7.1328125 C1.03899865 15.30486458 -21.72945063 13.52192652 -38.16015625 13.5078125 C-39.07018402 13.50944397 -39.98021179 13.51107544 -40.91781616 13.51275635 C-43.52886459 13.51222592 -46.13909001 13.49459682 -48.75 13.46875 C-49.92335907 13.46515472 -49.92335907 13.46515472 -51.12042236 13.46148682 C-56.6605938 13.36608505 -60.41520949 12.79370952 -64.53515625 9.0078125 C-66.31113377 5.98207303 -66.97413646 3.66407561 -66.8203125 0.1328125 C-65.67250462 -3.70821778 -62.46233222 -5.74893783 -59.22265625 -7.8671875 C-43.69235175 -15.63233975 -14.89593098 -4.92443368 0 0 Z " fill="#FEFDFC" transform="translate(210.22265625,292.8671875)"/>
<path d="M0 0 C0.33 0 0.66 0 1 0 C1.19916016 0.95712891 1.19916016 0.95712891 1.40234375 1.93359375 C1.57894531 2.75988281 1.75554687 3.58617188 1.9375 4.4375 C2.11152344 5.26121094 2.28554687 6.08492188 2.46484375 6.93359375 C2.80752994 8.97661204 2.80752994 8.97661204 4 10 C4.6496875 8.6078125 4.6496875 8.6078125 5.3125 7.1875 C7 4 7 4 10 1 C9.34 4.96 8.68 8.92 8 13 C8.66 13 9.32 13 10 13 C10.20625 12.401875 10.4125 11.80375 10.625 11.1875 C12.50926082 8.18981233 14.81132084 7.38638224 18 6 C17.67 6.99 17.34 7.98 17 9 C16.34 9 15.68 9 15 9 C14.34 11.31 13.68 13.62 13 16 C16.3 15.34 19.6 14.68 23 14 C21.62141149 16.75717702 19.62533685 17.46321746 17 19 C16.34 19.66 15.68 20.32 15 21 C18.63 21.66 22.26 22.32 26 23 C26 23.33 26 23.66 26 24 C24.906875 24.12375 23.81375 24.2475 22.6875 24.375 C18.92618198 24.75464801 18.92618198 24.75464801 16 27 C18.97 28.65 21.94 30.3 25 32 C23.02 32.495 23.02 32.495 21 33 C20.67 32.67 20.34 32.34 20 32 C17.67182036 31.63239269 15.3381615 31.29758419 13 31 C13.928125 32.0828125 13.928125 32.0828125 14.875 33.1875 C16.83666353 35.78381938 17.95316 37.94671666 19 41 C18.443125 40.54625 17.88625 40.0925 17.3125 39.625 C14.7030179 37.65891757 14.7030179 37.65891757 10 36 C10.66 39.63 11.32 43.26 12 47 C11.01 46.505 11.01 46.505 10 46 C9.87625 45.195625 9.7525 44.39125 9.625 43.5625 C9.41875 42.716875 9.2125 41.87125 9 41 C7.68 40.34 6.36 39.68 5 39 C4.34 42.3 3.68 45.6 3 49 C2.67 49 2.34 49 2 49 C1.855625 47.9275 1.71125 46.855 1.5625 45.75 C1.16250558 43.08337051 0.72408076 40.58600271 0 38 C-0.66 38 -1.32 38 -2 38 C-2.0825 38.9075 -2.165 39.815 -2.25 40.75 C-3.09248732 44.40077839 -4.17881618 45.63384583 -7 48 C-7 44.7 -7 41.4 -7 38 C-10.96 40.475 -10.96 40.475 -15 43 C-13.33333333 39.66666667 -11.66666667 36.33333333 -10 33 C-13.63 33.99 -17.26 34.98 -21 36 C-21 35.34 -21 34.68 -21 34 C-19.28515625 32.78125 -19.28515625 32.78125 -17.0625 31.5 C-13.94567974 29.81545121 -13.94567974 29.81545121 -12 27 C-13.0725 27.04125 -14.145 27.0825 -15.25 27.125 C-19 27 -19 27 -23 25 C-17.555 24.01 -17.555 24.01 -12 23 C-12 22.34 -12 21.68 -12 21 C-12.721875 20.9175 -13.44375 20.835 -14.1875 20.75 C-17.55313254 19.85249799 -19.41612816 18.2885722 -22 16 C-18.7 16 -15.4 16 -12 16 C-14.475 12.04 -14.475 12.04 -17 8 C-13.66666667 9.66666667 -10.33333333 11.33333333 -7 13 C-7.495 11.948125 -7.495 11.948125 -8 10.875 C-9.09044562 7.73996884 -9.15322643 5.29436818 -9 2 C-8.5875 2.556875 -8.175 3.11375 -7.75 3.6875 C-5.87743601 6.16195956 -3.94660656 8.5835229 -2 11 C-1.34 7.37 -0.68 3.74 0 0 Z " fill="#F1CC52" transform="translate(242,72)"/>
<path d="M0 0 C2.8100346 1.79363911 4.50940468 3.01880935 6 6 C6.27193636 10.43215061 6.23166426 14.87295891 6.25 19.3125 C6.270625 20.54935547 6.29125 21.78621094 6.3125 23.06054688 C6.31765625 24.25357422 6.3228125 25.44660156 6.328125 26.67578125 C6.34214355 28.3141394 6.34214355 28.3141394 6.35644531 29.9855957 C5.84016772 34.35167753 4.0651132 36.9348868 1 40 C-2.05610339 40.57039258 -4.94031349 40.5337277 -8 40 C-10.75569447 37.81840855 -12.43588747 36.12822506 -14 33 C-14.29826075 28.75605802 -14.27812621 24.5031834 -14.3125 20.25 C-14.34150391 19.06921875 -14.37050781 17.8884375 -14.40039062 16.671875 C-14.48030306 5.75460733 -14.48030306 5.75460733 -10 1 C-6.79826746 -0.60086627 -3.47422941 -0.49917089 0 0 Z " fill="#E79719" transform="translate(152,346)"/>
<path d="M0 0 C2.64 0 5.28 0 8 0 C8.31319144 1.39567835 8.62551788 2.79155082 8.9375 4.1875 C9.11152344 4.96480469 9.28554687 5.74210937 9.46484375 6.54296875 C10.00493041 9.02263668 10.50229578 11.51147892 11 14 C11.33 9.71 11.66 5.42 12 1 C14.31 1 16.62 1 19 1 C19 13.87 19 26.74 19 40 C16.36 40 13.72 40 11 40 C10.01 34.555 10.01 34.555 9 29 C8.67 32.63 8.34 36.26 8 40 C5.36 40 2.72 40 0 40 C0 26.8 0 13.6 0 0 Z " fill="#E79618" transform="translate(243,346)"/>
<path d="M0 0 C2.64 0 5.28 0 8 0 C8.31319144 1.39567835 8.62551788 2.79155082 8.9375 4.1875 C9.11152344 4.96480469 9.28554687 5.74210937 9.46484375 6.54296875 C10.00493041 9.02263668 10.50229578 11.51147892 11 14 C11.33 9.71 11.66 5.42 12 1 C14.31 1 16.62 1 19 1 C19 13.87 19 26.74 19 40 C16.36 40 13.72 40 11 40 C10.01 34.555 10.01 34.555 9 29 C8.67 32.63 8.34 36.26 8 40 C5.36 40 2.72 40 0 40 C0 26.8 0 13.6 0 0 Z " fill="#E79618" transform="translate(220,346)"/>
<path d="M0 0 C5.28 0 10.56 0 16 0 C19 3 19 3 19.36328125 5.77734375 C19.34652344 6.82019531 19.32976562 7.86304688 19.3125 8.9375 C19.30863281 9.97777344 19.30476563 11.01804687 19.30078125 12.08984375 C19.00916371 14.91133812 18.4531841 16.5973251 17 19 C17.66 19.66 18.32 20.32 19 21 C19.22705078 22.87939453 19.22705078 22.87939453 19.1953125 25.1328125 C19.18886719 25.93847656 19.18242187 26.74414062 19.17578125 27.57421875 C19.15902344 28.41597656 19.14226562 29.25773437 19.125 30.125 C19.11597656 30.97449219 19.10695313 31.82398438 19.09765625 32.69921875 C19.07405647 34.79959884 19.03818483 36.89983444 19 39 C16.36 39 13.72 39 11 39 C10.67 33.39 10.34 27.78 10 22 C9.34 21.67 8.68 21.34 8 21 C8 26.94 8 32.88 8 39 C5.36 39 2.72 39 0 39 C0 26.13 0 13.26 0 0 Z " fill="#E79619" transform="translate(285,347)"/>
<path d="M0 0 C4.61576693 0.74181969 7.22784337 2.29034337 10.5 5.5625 C10.6953125 8.1640625 10.6953125 8.1640625 10.625 11.1875 C10.60695312 12.19039063 10.58890625 13.19328125 10.5703125 14.2265625 C10.54710937 14.99742187 10.52390625 15.76828125 10.5 16.5625 C7.86 16.5625 5.22 16.5625 2.5 16.5625 C2.5 13.9225 2.5 11.2825 2.5 8.5625 C1.51 8.5625 0.52 8.5625 -0.5 8.5625 C-0.5 16.8125 -0.5 25.0625 -0.5 33.5625 C0.49 33.5625 1.48 33.5625 2.5 33.5625 C2.5 30.2625 2.5 26.9625 2.5 23.5625 C5.14 23.5625 7.78 23.5625 10.5 23.5625 C11.26870092 34.27306619 11.26870092 34.27306619 8.5625 38.8125 C5.0587228 40.8146584 2.74656298 41.15675065 -1.21875 41.2265625 C-4.68646231 40.2171257 -6.20799462 38.30679506 -8.5 35.5625 C-9.14697266 32.42797852 -9.14697266 32.42797852 -9.1640625 28.94140625 C-9.17050781 27.67619141 -9.17695312 26.41097656 -9.18359375 25.10742188 C-9.16425781 23.79322266 -9.14492187 22.47902344 -9.125 21.125 C-9.14433594 19.81466797 -9.16367188 18.50433594 -9.18359375 17.15429688 C-9.12920721 6.46734198 -9.12920721 6.46734198 -6.1796875 2.6875 C-3.5 0.5625 -3.5 0.5625 0 0 Z " fill="#E7971B" transform="translate(125.5,345.4375)"/>
<path d="M0 0 C5.46631699 0.69413549 5.46631699 0.69413549 7.9375 2.5 C10.3669516 6.1441774 10.09929575 8.21241272 9.9375 12.5 C7.2975 12.5 4.6575 12.5 1.9375 12.5 C1.9375 10.85 1.9375 9.2 1.9375 7.5 C0.9475 7.995 0.9475 7.995 -0.0625 8.5 C0.42859261 12.84428076 1.66943696 14.64677087 4.875 17.5625 C8.78761717 21.14847399 10.75278742 23.50510418 11.25 28.875 C10.83160903 33.7283353 9.38533653 37.05216347 5.9375 40.5 C1.33249693 41.18994819 -2.76067052 41.42080622 -6.625 38.6875 C-9.51747722 34.28590423 -9.14569715 30.57502599 -9.0625 25.5 C-6.4225 25.5 -3.7825 25.5 -1.0625 25.5 C-0.7325 27.81 -0.4025 30.12 -0.0625 32.5 C0.5975 32.5 1.2575 32.5 1.9375 32.5 C2.37011434 29.04526546 2.16439611 27.80299501 0.0390625 24.96484375 C-0.77820313 24.13082031 -1.59546875 23.29679687 -2.4375 22.4375 C-6.36467173 18.39188975 -8.76700288 15.77954918 -9.5 10.125 C-8.79584954 4.2906105 -6.1632828 0.17280232 0 0 Z " fill="#E7981B" transform="translate(336.0625,345.5)"/>
<path d="M0 0 C5.61 0 11.22 0 17 0 C17 2.64 17 5.28 17 8 C14.36 8 11.72 8 9 8 C9 10.64 9 13.28 9 16 C11.31 16 13.62 16 16 16 C16 18.31 16 20.62 16 23 C13.69 23 11.38 23 9 23 C9 25.97 9 28.94 9 32 C11.64 32 14.28 32 17 32 C17 34.64 17 37.28 17 40 C11.39 40 5.78 40 0 40 C0 26.8 0 13.6 0 0 Z " fill="#E89B24" transform="translate(367,346)"/>
<path d="M0 0 C5.61 0 11.22 0 17 0 C17 2.64 17 5.28 17 8 C14.36 8 11.72 8 9 8 C9 10.64 9 13.28 9 16 C11.31 16 13.62 16 16 16 C16 18.31 16 20.62 16 23 C13.69 23 11.38 23 9 23 C9 25.97 9 28.94 9 32 C11.64 32 14.28 32 17 32 C17 34.64 17 37.28 17 40 C11.39 40 5.78 40 0 40 C0 26.8 0 13.6 0 0 Z " fill="#E89B24" transform="translate(179,346)"/>
<path d="M0 0 C4.95 0 9.9 0 15 0 C15 2.31 15 4.62 15 7 C12.69 7 10.38 7 8 7 C8 9.64 8 12.28 8 15 C10.31 15 12.62 15 15 15 C15 17.31 15 19.62 15 22 C12.69 22 10.38 22 8 22 C8 24.97 8 27.94 8 31 C10.64 31 13.28 31 16 31 C16 33.64 16 36.28 16 39 C10.72 39 5.44 39 0 39 C0 26.13 0 13.26 0 0 Z " fill="#E79515" transform="translate(266,347)"/>
<path d="M0 0 C2.64 0 5.28 0 8 0 C8 10.89 8 21.78 8 33 C10.64 33 13.28 33 16 33 C16 35.31 16 37.62 16 40 C10.72 40 5.44 40 0 40 C0 26.8 0 13.6 0 0 Z " fill="#E7971B" transform="translate(349,346)"/>
<path d="M0 0 C2.64 0 5.28 0 8 0 C8 10.89 8 21.78 8 33 C10.64 33 13.28 33 16 33 C16 35.31 16 37.62 16 40 C10.72 40 5.44 40 0 40 C0 26.8 0 13.6 0 0 Z " fill="#E7971B" transform="translate(161,346)"/>
<path d="M0 0 C2.64 0 5.28 0 8 0 C8 13.2 8 26.4 8 40 C5.36 40 2.72 40 0 40 C0 26.8 0 13.6 0 0 Z " fill="#E8991E" transform="translate(317,346)"/>
<path d="M0 0 C2.64 0 5.28 0 8 0 C8 13.2 8 26.4 8 40 C5.36 40 2.72 40 0 40 C0 26.8 0 13.6 0 0 Z " fill="#E89A22" transform="translate(209,346)"/>
<path d="M0 0 C0.33 0 0.66 0 1 0 C1.19916016 0.95712891 1.19916016 0.95712891 1.40234375 1.93359375 C1.57894531 2.75988281 1.75554687 3.58617188 1.9375 4.4375 C2.11152344 5.26121094 2.28554687 6.08492188 2.46484375 6.93359375 C2.80752994 8.97661204 2.80752994 8.97661204 4 10 C4.6496875 8.6078125 4.6496875 8.6078125 5.3125 7.1875 C7 4 7 4 10 1 C9.34 4.96 8.68 8.92 8 13 C8.66 13 9.32 13 10 13 C10.20625 12.401875 10.4125 11.80375 10.625 11.1875 C12.50926082 8.18981233 14.81132084 7.38638224 18 6 C17.67 6.99 17.34 7.98 17 9 C16.34 9 15.68 9 15 9 C14.34 11.31 13.68 13.62 13 16 C16.3 15.34 19.6 14.68 23 14 C21.61423347 16.77153305 19.65868859 17.48074938 17 19 C16.01 19.66 15.02 20.32 14 21 C11 20 11 20 9.375 17.5 C6.37200801 14.3389558 4.42928744 14.10746309 0.1875 13.86328125 C-2.93930236 14.0587064 -4.65982246 14.94348035 -7 17 C-8.32793606 19.06700655 -8.32793606 19.06700655 -9 21 C-14.71658336 21.45732667 -17.48649253 20.52273754 -22 17 C-18.52674819 15.8422494 -15.63932552 15.93133348 -12 16 C-14.475 12.04 -14.475 12.04 -17 8 C-13.66666667 9.66666667 -10.33333333 11.33333333 -7 13 C-7.495 11.948125 -7.495 11.948125 -8 10.875 C-9.09044562 7.73996884 -9.15322643 5.29436818 -9 2 C-8.5875 2.556875 -8.175 3.11375 -7.75 3.6875 C-5.87743601 6.16195956 -3.94660656 8.5835229 -2 11 C-1.34 7.37 -0.68 3.74 0 0 Z " fill="#F3D161" transform="translate(242,72)"/>
<path d="M0 0 C0.515625 0.680625 1.03125 1.36125 1.5625 2.0625 C4.49083997 4.39015485 5.31913205 4.14150294 8.9375 3.9375 C12.7779497 3.7958905 13.7113949 3.8115232 17.0625 6 C19.55786859 9.86379652 19.76810784 12.43945415 20 17 C19.34 16.67 18.68 16.34 18 16 C17.87625 15.195625 17.7525 14.39125 17.625 13.5625 C17.41875 12.716875 17.2125 11.87125 17 11 C15.68 10.34 14.36 9.68 13 9 C12.34 12.3 11.68 15.6 11 19 C10.67 19 10.34 19 10 19 C9.7834375 17.39125 9.7834375 17.39125 9.5625 15.75 C9.16250558 13.08337051 8.72408076 10.58600271 8 8 C7.34 8 6.68 8 6 8 C5.9175 8.9075 5.835 9.815 5.75 10.75 C4.90751268 14.40077839 3.82118382 15.63384583 1 18 C1 14.7 1 11.4 1 8 C-1.64 9.65 -4.28 11.3 -7 13 C-5.33333333 9.66666667 -3.66666667 6.33333333 -2 3 C-7.445 4.485 -7.445 4.485 -13 6 C-13 5.34 -13 4.68 -13 4 C-11.40233897 3.13372601 -9.79660056 2.28233535 -8.1875 1.4375 C-7.29417969 0.96183594 -6.40085938 0.48617187 -5.48046875 -0.00390625 C-3 -1 -3 -1 0 0 Z " fill="#F3D366" transform="translate(234,102)"/>
<path d="M0 0 C0.99 0.33 1.98 0.66 3 1 C3 8.92 3 16.84 3 25 C1.68 25 0.36 25 -1 25 C-1.02886984 21.02084841 -1.04675406 17.04172347 -1.0625 13.0625 C-1.07087891 11.92619141 -1.07925781 10.78988281 -1.08789062 9.61914062 C-1.09111328 8.53955078 -1.09433594 7.45996094 -1.09765625 6.34765625 C-1.10289307 5.34742432 -1.10812988 4.34719238 -1.11352539 3.31665039 C-1 1 -1 1 0 0 Z " fill="#FCF5E9" transform="translate(147,353)"/>
<path d="M0 0 C-1 3 -1 3 -3 4 C-0.03 5.65 2.94 7.3 6 9 C4.68 9.33 3.36 9.66 2 10 C1.67 9.67 1.34 9.34 1 9 C-1.32817964 8.63239269 -3.6618385 8.29758419 -6 8 C-5.38125 8.721875 -4.7625 9.44375 -4.125 10.1875 C-2.16333647 12.78381938 -1.04684 14.94671666 0 18 C-0.5775 17.54625 -1.155 17.0925 -1.75 16.625 C-3.88883784 14.94189251 -3.88883784 14.94189251 -6.1875 14.125 C-8 13 -8 13 -8.875 10.75 C-9.0322958 7.28949234 -8.52294492 5.1151146 -7 2 C-4.50858315 0.62972073 -2.83598698 0 0 0 Z " fill="#F3D56C" transform="translate(261,95)"/>
<path d="M0 0 C2.31 0 4.62 0 7 0 C5.86500606 3.29148243 5.00716624 3.9959869 1.875 5.75 C0.92625 6.1625 -0.0225 6.575 -1 7 C-1.99 6.34 -2.98 5.68 -4 5 C-3.01 4.34 -2.02 3.68 -1 3 C-0.67 2.01 -0.34 1.02 0 0 Z " fill="#FDF8E9" transform="translate(223,99)"/>
<path d="M0 0 C1.65 0.33 3.3 0.66 5 1 C4.01 1.495 4.01 1.495 3 2 C3 3.32 3 4.64 3 6 C3 6.33 3 6.66 3 7 C-2.29441695 7.50423019 -4.81413519 6.18923033 -9 3 C-5.52674819 1.8422494 -2.63932552 1.93133348 1 2 C0.67 1.34 0.34 0.68 0 0 Z " fill="#F5DB83" transform="translate(229,86)"/>
<path d="M0 0 C0.33 0.66 0.66 1.32 1 2 C1.66 2 2.32 2 3 2 C3 4.31 3 6.62 3 9 C2.67 9 2.34 9 2 9 C1.67 7.35 1.34 5.7 1 4 C-1.64 5.65 -4.28 7.3 -7 9 C-3.33333333 1.66666667 -3.33333333 1.66666667 0 0 Z " fill="#F6DD89" transform="translate(234,106)"/>
<path d="M0 0 C0.99 0.33 1.98 0.66 3 1 C2.34 2.32 1.68 3.64 1 5 C1.99 5.33 2.98 5.66 4 6 C4 6.33 4 6.66 4 7 C1.36 7.33 -1.28 7.66 -4 8 C-3.50168276 4.31245243 -2.89932357 2.39509338 0 0 Z " fill="#FDF7E6" transform="translate(259,80)"/>
<path d="M0 0 C0.50423019 5.29441695 -0.81076967 7.81413519 -4 12 C-5.60156595 7.99608513 -4.4087561 4.92968808 -3 1 C-1 0 -1 0 0 0 Z " fill="#F4D773" transform="translate(240,108)"/>
<path d="M0 0 C0.33 0.99 0.66 1.98 1 3 C1.66 3 2.32 3 3 3 C3 5.31 3 7.62 3 10 C1.35 8.68 -0.3 7.36 -2 6 C-1.34 4.02 -0.68 2.04 0 0 Z " fill="#FCF5DE" transform="translate(238,74)"/>
<path d="M0 0 C0 0.99 0 1.98 0 3 C-2.95183101 5.95183101 -5.95511947 6.08663988 -10 7 C-10 6.34 -10 5.68 -10 5 C-6.7 3.35 -3.4 1.7 0 0 Z " fill="#F5D97C" transform="translate(231,101)"/>
<path d="M0 0 C2.96052484 3.36423277 3.92289822 6.69159287 5 11 C4.01 11.33 3.02 11.66 2 12 C0.40861915 7.82262526 -0.21278058 4.46839215 0 0 Z " fill="#F5DC86" transform="translate(233,74)"/>
<path d="M0 0 C3.70066609 0.90460727 5.56497978 1.43868358 7.9375 4.5 C8.288125 5.325 8.63875 6.15 9 7 C8.67 7.66 8.34 8.32 8 9 C7.5875 8.54625 7.175 8.0925 6.75 7.625 C5.08048988 5.89725289 5.08048988 5.89725289 2.875 5.0625 C1 4 1 4 0.25 1.875 C0.1675 1.25625 0.085 0.6375 0 0 Z " fill="#F4D877" transform="translate(252,104)"/>
<path d="M0 0 C3 1 3 1 4 3 C2.35 3.33 0.7 3.66 -1 4 C-0.01 4.66 0.98 5.32 2 6 C-0.31 6 -2.62 6 -5 6 C-3.35 4.02 -1.7 2.04 0 0 Z " fill="#FCF6E0" transform="translate(261,88)"/>
<path d="M0 0 C-5.41538462 4.06153846 -5.41538462 4.06153846 -8.375 3.75 C-8.91125 3.5025 -9.4475 3.255 -10 3 C-10 2.01 -10 1.02 -10 0 C-2.25 -1.125 -2.25 -1.125 0 0 Z " fill="#F4D877" transform="translate(265,87)"/>
<path d="M0 0 C0 0.99 0 1.98 0 3 C-0.66 3 -1.32 3 -2 3 C-2.2475 3.61875 -2.495 4.2375 -2.75 4.875 C-4.20628639 7.35068687 -5.37812506 7.95125002 -8 9 C-6.64531705 4.12314139 -4.28324091 2.51407619 0 0 Z " fill="#F5D97D" transform="translate(259,78)"/>
<path d="M0 0 C0 0.66 0 1.32 0 2 C-3.10217621 3.83832664 -5.39408679 4.47446226 -9 4 C-9.66 3.01 -10.32 2.02 -11 1 C-7.26513121 0.4254048 -3.78706732 0 0 0 Z " fill="#FCF6E2" transform="translate(230,93)"/>
<path d="M0 0 C0.33 0.66 0.66 1.32 1 2 C-7.03571429 3.33928571 -7.03571429 3.33928571 -11 1 C-9.5437328 0.63743142 -8.08488815 0.28520207 -6.625 -0.0625 C-5.40683594 -0.35833984 -5.40683594 -0.35833984 -4.1640625 -0.66015625 C-2 -1 -2 -1 0 0 Z " fill="#F3D46B" transform="translate(230,96)"/>
<path d="M0 0 C0.99 0 1.98 0 3 0 C3 2.31 3 4.62 3 7 C2.01 7 1.02 7 0 7 C0 4.69 0 2.38 0 0 Z " fill="#FEFCFA" transform="translate(293,354)"/>
<path d="M0 0 C0.66 0.33 1.32 0.66 2 1 C1.34 2.65 0.68 4.3 0 6 C-1.32 5.67 -2.64 5.34 -4 5 C-2.25 1.125 -2.25 1.125 0 0 Z " fill="#FDF9EA" transform="translate(231,104)"/>
</svg>
